<?xml version="1.0" encoding="utf-8" ?><svg xmlns="http://www.w3.org/2000/svg" xmlns:xlink="http://www.w3.org/1999/xlink" width="816" height="773" viewBox="0 0 816 773"><path fill="white" d="M0 0L816 0L816 773L0 773L0 0Z"/><path d="M207.447 72.2897C208.969 72.1652 210.495 72.1057 212.022 72.1114C223.697 72.0568 235.608 74.9214 246.361 79.364C251.997 81.6922 257.222 84.7537 262.508 87.7664C285.324 100.771 305.707 116.983 324.309 135.453C333.125 133.65 341.694 130.891 350.556 129.19C380.317 123.477 412.505 122.481 442.47 127.535C448.05 128.476 453.688 129.458 459.186 130.81C465.428 132.344 471.599 134.27 477.925 135.426C479.928 132.946 482.631 130.711 484.953 128.518C494.058 119.917 503.718 111.925 513.872 104.591C538.35 86.9393 569.656 67.8681 601.119 73.0588C626.485 77.2437 645.942 90.8068 660.617 111.525C702.676 170.905 714.889 274.739 719.915 346.699C720.374 353.734 720.878 360.766 721.427 367.794C722.134 376.895 723.479 386.549 721.862 395.596C720.018 405.916 713.636 415.438 705.091 421.408C696.261 427.576 684.305 430.466 673.671 428.467C659.602 425.902 647.802 416.357 642.354 403.133C637.219 390.57 636.908 361.472 635.812 347.331C631.776 295.251 623.724 223.135 601.544 176.393C598.218 169.385 594.185 162.783 589.782 156.408C581.996 159.13 574.336 164.647 567.662 169.448C548.159 183.479 530.674 198.702 516.999 218.615C514.238 222.627 511.77 226.832 509.615 231.198C508.342 233.807 507.61 237.051 505.89 239.348C504.876 239.52 504.072 239.116 503.185 238.665C499.829 236.959 496.668 234.784 493.358 232.969C485.737 228.737 477.825 225.049 469.684 221.933C418.335 202.108 368.374 205.801 318.582 227.85C310.935 231.627 303.761 236.24 296.141 240.034C285.443 212.855 263.889 191.725 241.04 174.448C231.926 167.556 222.823 161.226 212.509 156.253C206.864 163.906 202.047 172.137 198.139 180.807C173.713 235.456 165.358 327.921 162.484 388.442C161.835 402.125 161.895 415.891 161.459 429.593C160.874 445.301 160.521 461.017 160.398 476.735C160.248 487.075 159.732 497.644 160.848 507.936C162.011 518.657 165.932 528.245 172.834 536.547C188.745 555.687 208.192 555.487 230.841 555.461L262.046 555.411C276.88 555.387 290.081 555.308 302.154 565.196C310.561 571.982 315.876 581.872 316.897 592.628C318.02 604.002 314.819 615.296 307.515 624.155C300.257 632.956 289.05 638.051 277.806 639.116C265.577 640.274 252.816 639.536 240.519 639.535C230.891 639.535 221.152 639.819 211.539 639.288C180.134 637.555 150.214 628.228 125.788 607.856C98.7153 585.277 80.3647 550.671 77.3215 515.484C76.3714 504.499 76.48 493.453 76.5406 482.438C76.7473 463.72 77.1653 445.005 77.7946 426.297C78.1227 414.648 78.0855 402.968 78.5748 391.328C82.0194 309.384 94.1883 165.842 148.445 101.731C163.555 83.8762 184.32 74.1864 207.447 72.2897Z"/><path d="M556.348 607.815C557.323 607.758 558.3 607.725 559.277 607.716C579.069 607.608 601.783 618.235 615.688 631.978C632.303 648.258 641.632 670.563 641.558 693.825C641.595 707.373 636.741 720.244 627.03 729.823C613.494 743.174 601.014 744.029 583.144 744.033L560.402 744.013L536.929 744.029C519.967 744.021 504.612 743.666 491.256 731.743C480.773 722.384 475.231 710.134 474.563 696.132C473.508 674.002 481.36 651.142 496.266 634.764C508.565 621.251 526.646 611.794 544.627 608.764C548.491 608.113 552.439 607.999 556.348 607.815Z"/><path d="M552.741 461.299C575.586 458.372 596.49 474.486 599.476 497.323C602.463 520.16 586.405 541.108 563.577 544.154C540.663 547.212 519.622 531.081 516.624 508.159C513.626 485.236 529.812 464.236 552.741 461.299Z"/><path d="M427.82 534.785C450.697 532.237 471.321 548.685 473.928 571.556C476.536 594.427 460.143 615.094 437.28 617.761C414.332 620.438 393.573 603.971 390.956 581.015C388.339 558.06 404.859 537.343 427.82 534.785Z"/><path d="M679.028 534.793C701.94 532.234 722.588 548.734 725.146 571.647C727.704 594.56 711.203 615.208 688.291 617.765C665.381 620.322 644.735 603.822 642.177 580.911C639.62 558 656.118 537.352 679.028 534.793Z"/></svg>